<?xml version="1.0" standalone="no"?>
<!DOCTYPE svg PUBLIC "-//W3C//DTD SVG 1.1//EN" "http://www.w3.org/Graphics/SVG/1.1/DTD/svg11.dtd" >
<!--
2013-9-30: Created.
-->
<svg>
<metadata>
Created by iconfont
</metadata>
<defs>

<font id="iconfont" horiz-adv-x="1024" >
  <font-face
    font-family="iconfont"
    font-weight="500"
    font-stretch="normal"
    units-per-em="1024"
    ascent="896"
    descent="-128"
  />
    <missing-glyph />
    
    <glyph glyph-name="wenjianjiadakai" unicode="&#58943;" d="M800.58 723.42H323.8c0 29.25-23.71 52.98-52.98 52.98H58.92c-29.25 0-52.98-23.72-52.98-52.98V34.7c0-29.28 23.72-52.99 52.98-52.99h741.67c29.25 0 52.98 23.72 52.98 52.99V670.44c-0.01 29.27-23.73 52.98-52.99 52.98zM747.61 670.46H111.89c-29.26 0-52.98-23.71-52.98-52.98v-533.23c0-29.28 23.72-52.99 52.98-52.99H747.6c29.25 0 52.98 23.72 52.98 52.99V617.48c0 29.25-23.71 52.98-52.97 52.98zM225.44 510.14c-29.27 0-52.98-23.72-53-52.97L5.94 34.7c0-29.24 23.73-52.98 52.98-52.98h741.67c29.27 0 52.98 23.75 52.98 52.98l166.5 422.46c0 29.27-23.73 52.98-52.98 52.98H225.44z"  horiz-adv-x="1024" />

    
    <glyph glyph-name="wenjianjia" unicode="&#58944;" d="M884.72 729.96H405.41c0 29.41-23.84 53.27-53.26 53.27H139.13c-29.41 0-53.27-23.84-53.27-53.27v-159.77c0-29.43 23.84-53.27 53.27-53.27h745.61c29.41 0 53.27 23.84 53.27 53.27V676.7c-0.02 29.43-23.87 53.26-53.29 53.26z m0 0M831.47 676.71H192.38c-29.41 0-53.27-23.84-53.27-53.26v-53.27c0-29.43 23.84-53.27 53.27-53.27h639.08c29.41 0 53.26 23.84 53.26 53.27v53.27c0 29.41-23.83 53.26-53.25 53.26z m0 0M884.72 623.45H139.13c-29.41 0-53.27-23.84-53.27-53.27v-532.6c0-29.38 23.84-53.26 53.27-53.26h745.61c29.41 0 53.27 23.87 53.27 53.26V570.21c-0.02 29.4-23.87 53.24-53.29 53.24z m0 0"  horiz-adv-x="1024" />

    
    <glyph glyph-name="wenjian" unicode="&#58945;" d="M830.73 779.32H194.74c-29.27 0-53.01-23.73-53.01-53.02v-688.95c0-29.27 23.73-53 53.01-53h450.49l238.48 238.48V726.29c0 29.3-23.72 53.03-52.98 53.03zM804.23 726.29H221.24c-14.65 0-26.5-11.85-26.5-26.47v-635.97c0-14.65 11.85-26.5 26.5-26.5h397.49l211.98 211.98V699.82c0.02 14.62-11.86 26.47-26.48 26.47zM698.23 222.83c-29.27 0-53.01-23.73-53.01-53.01v-185.5l238.49 238.49H698.23v0.02zM698.23 408.31h-371c-14.65 0-26.51-11.86-26.51-26.48 0-14.64 11.86-26.5 26.51-26.5h370.98c14.62 0 26.5 11.86 26.5 26.5 0.01 14.62-11.86 26.48-26.48 26.48z m-370.99 53.01h212c14.62 0 26.51 11.86 26.51 26.5 0 14.61-11.89 26.5-26.51 26.5h-212c-14.65 0-26.51-11.89-26.51-26.5 0.02-14.64 11.85-26.5 26.51-26.5z m0 106h370.98c14.62 0 26.5 11.86 26.5 26.48 0 14.65-11.88 26.53-26.5 26.53H327.24c-14.65 0-26.51-11.88-26.51-26.53 0.02-14.62 11.85-26.48 26.51-26.48z"  horiz-adv-x="1024" />

    
    <glyph glyph-name="shujuchaxun" unicode="&#58946;" d="M486.12 83.91c-182.57 0-333.98 151.41-333.98 333.98s151.41 333.98 333.98 333.98S820.1 600.47 820.1 417.89 668.69 83.91 486.12 83.91z m0 44.53c160.31 0 289.45 129.14 289.45 289.45S646.43 707.34 486.12 707.34 196.67 578.2 196.67 417.89s129.14-289.45 289.45-289.45z m276.09 44.53L886.9 48.28l-31.17-31.17L731.04 141.8l31.17 31.17z m0 0"  horiz-adv-x="1024" />

    
    <glyph glyph-name="tianjiashuju" unicode="&#58947;" d="M537.7 357.26v-147.23h-49.08V357.26H341.4v49.08h147.23V553.56h49.08v-147.23h147.23v-49.08H537.7zM145.09 749.87h736.15v-736.15H145.09V749.87z m49.08-49.07v-638h638v638h-638z m0 0"  horiz-adv-x="1024" />

    
    <glyph glyph-name="tucenggongju" unicode="&#58948;" d="M150.67 751.87h733.51v-733.51H150.67V751.87z m48.9-48.9v-635.71h635.71V702.97H199.57z m489.01-293.4v-48.9h-342.3v48.9h342.3z m0 0"  horiz-adv-x="1024" />

    
    <glyph glyph-name="tongjifenxi" unicode="&#58949;" d="M199.66 66.1h685.77v-48.98H150.67V751.87h48.98V66.1z m97.96 587.81h48.99v-489.84h-48.99V653.91z m146.96-97.98h48.98v-391.87h-48.98V555.93z m146.95-97.96h48.98v-293.9h-48.98v293.9zM738.48 360h48.98v-195.94h-48.98V360z m0 0"  horiz-adv-x="1024" />

    
    <glyph glyph-name="qingchuxuanze" unicode="&#58950;" d="M881.27 646.81v-633.09h-633.1l49.08 49.07h534.94V597.73zM145.11 116.78V749.87h633.1l-49.08-49.07H194.19v-534.95zM113.661 18.63l760.684 760.684 34.358-34.358L148.02-15.728z"  horiz-adv-x="1024" />

    
    <glyph glyph-name="tucenggongju1" unicode="&#58951;" d="M150.67 751.87h733.51v-733.51H150.67V751.87z m48.9-48.9v-635.71h635.71V702.97H199.57z m489.01-293.4v-48.9h-342.3v48.9h342.3z m0 0M542.41 410.1h145.51v-48.51H542.41v-145.51H493.9V361.59H348.39V410.1H493.9V555.61h48.51V410.1zM150.67 753.33h734.97v-734.97H150.67V753.33z m49-49v-636.97h636.97V704.33H199.67z m0 0"  horiz-adv-x="1024" />

    
    <glyph glyph-name="biaozhu" unicode="&#58952;" d="M388.55 481.49l140.79 140.79-30.8 30.8 96.79 96.79 281.58-281.58-92.39-92.39-30.8 30.8-145.18-140.8 61.6-61.6-92.39-92.39-343.19 338.78 92.39 92.39 61.6-61.59z m-92.39-30.8l281.58-281.58 30.79 30.8-61.59 66L753.73 472.7l30.8-30.8 30.8 30.8-215.59 215.58-30.8-30.8 30.8-30.8-206.78-206.79-61.6 61.59-35.2-30.79z m57.2-197.99l30.8-30.8-206.79-206.78-30.8 35.2L353.36 252.7z m0 0"  horiz-adv-x="1024" />

    
    <glyph glyph-name="daochujiexian" unicode="&#58953;" d="M731.5 558.83L569.86 397.19l-34.29 34.29 161.65 161.65-156.76 156.74h342.89v-342.89L731.5 558.83z m-73.47 142.06l176.34-176.34V700.89H658.03z m-460.45 0V64.1h636.79V406.99L883.35 358v-342.89H148.59V749.87h342.89l48.98-48.98H197.58z m0 0"  horiz-adv-x="1024" />

    
    <glyph glyph-name="tufumulu" unicode="&#58954;" d="M718.49 469.16l147.69-84.4-147.69-84.39 147.69-84.39-346.01-198.34-350.24 198.33 147.69 84.39-147.69 84.39 147.69 84.4-147.69 84.39 346.02 198.32 346.01-202.54-143.47-80.16z m-358.67-25.32l-105.5-59.08 261.62-151.91 261.62 151.91-101.27 59.08L515.94 351l-156.12 92.84z m316.47-168.79l-160.35-92.83-160.34 92.83-101.27-59.07 261.62-151.91 261.62 151.91-101.28 59.07zM515.94 701.23L254.32 553.55l261.62-151.91 261.62 151.91-261.62 147.68z m0 0"  horiz-adv-x="1024" />

    
    <glyph glyph-name="xuanze" unicode="&#58955;" d="M494.15-18.66L111.69 779.32l797.98-382.46-415.52-415.52z m302.19 415.51L206.13 689.61l288.02-594.95 302.19 302.19z"  horiz-adv-x="1024" />

    
    <glyph glyph-name="xuanfuanniu" unicode="&#58956;" d="M466.09 63.61l89.12 121.79-89.12 25.67v-147.46zM151.33 350.2l253.18-76.69 311.8 264.75-241.64-285.18 270.69-83.62 139.42 535.91L151.33 350.2z m0 0"  horiz-adv-x="1024" />

    
    <glyph glyph-name="ditu-suoxiao" unicode="&#58958;" d="M493.77 361.55H148.59V404.7h345.18m-11.85 0H882.1v-43.15H481.92m11.85 43.15"  horiz-adv-x="1024" />

    
    <glyph glyph-name="ditu-pingyi" unicode="&#58959;" d="M724.76 18.21H440.39c-32.52 0-62.94 17.43-79.35 45.43L229.94 287.2c-23.62 40.32-15.16 91.01 19.97 121.54l2.91 2.79c34.17 28.15 86.89 27.13 119.92-1.02V658.76c0 50.97 41.47 92.47 92.45 92.47 25 0 48.23-9.72 65.66-27.28 17.51-17.69 27.02-41.18 26.79-66.11l-1.46-150.55 191.38-13.22c40.98-4.06 71.27-37.68 71.27-78.17l-1.92-305.75c-0.32-50.68-41.65-91.94-92.15-91.94zM287.59 372.26l-2.38-2.2c-16.85-13.88-21.09-37.61-10.07-56.37l131.07-223.57c7.18-12.24 19.94-19.53 34.18-19.53h284.37c21.81 0 39.68 17.87 39.81 39.85l1.92 305.58c0 13.37-10.03 24.57-23.35 25.9l-190.69 13.17c-27.5 1.89-48.89 25.03-48.64 52.72l1.46 150.55c0.1 10.87-4.02 21.06-11.63 28.71-7.52 7.6-17.54 11.79-28.17 11.79-22.39 0-40.37-17.97-40.37-40.09v-409.93l-79.94 115.04c-12.75 17.55-39.65 21.93-57.57 8.38z m0 0"  horiz-adv-x="1024" />

    
    <glyph glyph-name="hangzhengmulu" unicode="&#58960;" d="M150.67 751.87h734.76v-734.76H150.67V751.87z m48.99-48.98V66.1h636.79V702.89H199.66z m489.83-195.94v-48.98H346.61v48.98h342.88z m0-195.93v-48.98H346.61v48.98h342.88z m0 0"  horiz-adv-x="1024" />

    
    <glyph glyph-name="ditu-Ichaxun" unicode="&#58961;" d="M512.68 16.37c-202.79 0-366.75 163.96-366.75 366.75s163.96 366.75 366.75 366.75 366.75-163.96 366.75-366.75-163.96-366.75-366.75-366.75z m0 43.15c176.9 0 323.6 146.7 323.6 323.6s-146.7 323.6-323.6 323.6-323.6-146.7-323.6-323.6 146.7-323.6 323.6-323.6z m21.57 172.59v-43.15H491.1v43.15h43.15z m0 345.17v-302.02H491.1V577.28h43.15z m0 0"  horiz-adv-x="1024" />

    
    <glyph glyph-name="celiang" unicode="&#58962;" d="M592.41 623.21l-49.94-49.94 88.36-88.36-26.89-26.89-88.36 88.36-49.94-49.95L554 408.07l-26.89-26.89-88.36 88.36-49.95-49.95 88.36-88.36-26.89-26.89-88.37 88.36-49.95-49.94 88.36-88.36-26.89-26.89-88.36 88.36-84.52-84.52L361.9 69.98l461.02 461.03-161.35 161.35-46.1-46.1 88.36-88.36-26.89-26.89-84.53 92.2z m69.16 126.78l218.98-218.98L365.74 16.2 146.76 235.18l514.81 514.81z m0 0"  horiz-adv-x="1024" />

    
    <glyph glyph-name="ditu-quantu" unicode="&#58963;" d="M532.6 16.37h-17.26c-202.79 0-366.75 163.96-366.75 366.75s163.96 366.75 366.75 366.75h21.57c194.16-12.94 345.18-172.59 345.18-366.75 0-176.9-125.12-323.6-293.4-358.12-17.25-4.31-38.83-8.63-56.09-8.63z m-34.51 43.15v146.7l-60.41 81.98 125.13 125.13 60.4-60.41h116.5l77.67-77.66v-8.63c12.95 38.83 21.57 77.67 21.57 120.81 0 168.27-129.44 306.34-293.4 323.6l-90.61-90.61 60.4-60.41v-112.18L416.1 348.6 226.26 529.82c-21.57-43.15-34.52-94.92-34.52-146.7 0-172.59 133.76-314.97 306.35-323.6zM347.07 659.26c-38.83-25.89-69.04-51.78-94.92-90.61L416.1 404.7l56.09 56.09v77.66l-77.67 77.67 12.95 12.94 73.35 73.35c-47.45-4.32-90.6-17.26-133.75-43.15z m194.16-435.78v-163.96c43.15 4.32 90.61 17.26 138.07 43.15 38.83 21.57 69.03 51.78 94.92 86.29V258l-51.78 51.78h-116.5l-43.15 43.15-64.72-64.72 43.16-64.73z m0 0"  horiz-adv-x="1024" />

    
    <glyph glyph-name="ditu-fangda" unicode="&#58964;" d="M493.77 404.7V749.87h43.15V404.7H882.1v-43.15H536.92v-345.18h-43.15V361.55H148.59V404.7h345.18z m0 0"  horiz-adv-x="1024" />

    
    <glyph glyph-name="gongjuxiang" unicode="&#58965;" d="M681.13 634.23v96.72c0.76 23.02-26.59 48.36-48.36 48.36H366.78c-22.29 0-48.36-24.38-48.36-48.36v-96.72H173.33c-36.13 0-72.55-38.55-72.55-72.54v-120.91h822.16V561.69c0 36-36.64 72.54-72.54 72.54H681.13z m-72.55 0H390.96v48.36c0 14.67 9.56 24.18 24.18 24.18H584.4c14.61 0 24.18-9.5 24.18-24.18v-48.36z m-97.66-337.66c47.63 0 49.31 58.54 49.31 95.85H439.32c0.82-30.03 0.94-96.72 48.36-96.72 0 0 13.27 0.87 23.24 0.87z m97.66 95.85s38.33-145.09-108.82-145.09c-151.94 0-108.8 145.09-108.8 145.09H100.78v-338.53c0-37.15 32.61-72.54 72.54-72.54H850.4c36.32 0 72.54 31.29 72.54 72.54V392.42H608.58z m0 0"  horiz-adv-x="1024" />

    
    <glyph glyph-name="qianyishitu" unicode="&#58966;" d="M146.67 504.95V749.87h244.92v-48.98H195.66v-195.94zM146.67 260.04h48.99V64.1h195.93v-48.98H146.67zM881.43 504.95h-48.98V700.89H636.51v48.98h244.92zM881.43 260.04v-244.92H636.51V64.1h195.94V260.04zM508.6 410.08h228.6v-48.49H508.6v-221.68L266.15 382.37l242.46 242.46-0.01-214.75z m-48.49-152.4V507.06L335.42 382.37l124.69-124.69z"  horiz-adv-x="1024" />

    
    <glyph glyph-name="houyishitu" unicode="&#58967;" d="M146.67 504.95V749.87h244.92v-48.98H195.66v-195.94zM146.67 260.04h48.99V64.1h195.93v-48.98H146.67zM881.43 504.95h-48.98V700.89H636.51v48.98h244.92zM881.43 260.04v-244.92H636.51V64.1h195.94V260.04zM494.75 624.83l242.46-242.46-242.46-242.46V361.59h-228.6v48.49h228.6V624.83z m173.19-242.46L543.25 507.06v-249.38l124.69 124.69z"  horiz-adv-x="1024" />

    
    <glyph glyph-name="huizhi" unicode="&#58968;" d="M547.49 676.4l261.76-261.76-399.53-399.52H147.96V276.87L547.49 676.4z m0-64.29l-353.6-358.2v-192.87h192.87l353.6 353.6-192.87 197.47z m78.07 137.76l257.16-261.75-32.15-32.15-261.75 261.76 36.74 32.14z m0 0"  horiz-adv-x="1024" />

    
    <glyph glyph-name="tucenggongju2" unicode="&#58969;" d="M530.52 751.87L776.7 511.59 400.95 144.83h-250.5V385.12l380.07 366.75zM193.64 368.26V191.2h181.4l336.89 320.38-181.4 177.05-336.89-320.37z m-43.19-307.74h129.57v-42.16H150.45v42.16z m172.76 0h215.95v-42.16H323.21v42.16z m259.14 0h302.33v-42.16H582.35v42.16z m0 0"  horiz-adv-x="1024" />

    
    <glyph glyph-name="ditu-quanping" unicode="&#58970;" d="M233.95 66.1h112.66v-48.98H150.67V213.05h48.98v-112.66L346.6 247.34l34.29-34.29L233.95 66.1z m568.21 0L655.21 213.05l34.29 34.29 146.95-146.95V213.05h48.98v-195.94H689.49V66.1h112.67zM233.95 702.89L380.9 555.93l-34.29-34.29L199.66 668.6v-112.66h-48.98V751.87h195.94v-48.98H233.95z m568.21 0H689.49v48.98h195.94v-195.94h-48.98V668.6L689.49 521.65l-34.29 34.29 146.96 146.95z m0 0"  horiz-adv-x="1024" />

    
    <glyph glyph-name="xiala" unicode="&#58971;" d="M714.08 456.95L540.03 266.62a27.39 27.39 0 0 0-41.15 0L324.83 456.95c-8.5 8.97-11.12 22.05-6.73 33.61 4.39 11.55 14.99 19.62 27.3 20.72h347.96c12.36-1.05 23.01-9.07 27.4-20.67 4.44-11.61 1.82-24.64-6.68-33.66z m0 0"  horiz-adv-x="1024" />

    
    <glyph glyph-name="zhanghao" unicode="&#58981;" d="M802.37 196.15c-15.59 36.87-37.86 69.86-66.25 98.25s-61.48 50.66-98.34 66.26c-9.19 3.87-18.57 7.3-27.95 10.28 49.13 31.28 81.85 86.26 81.85 148.64 0 97.08-78.97 176.14-176.14 176.14-97.08 0-176.14-78.96-176.14-176.14 0-63.01 33.26-118.36 83.11-149.46-8.65-2.79-17.13-5.95-25.51-9.46-36.87-15.59-69.86-37.86-98.26-66.26-28.39-28.39-50.66-61.48-66.25-98.25-16.14-38.13-24.34-78.61-24.34-120.43h41.47c0 147.65 120.16 267.81 267.81 267.81s267.81-120.16 267.81-267.81h41.47c0 41.83-8.21 82.3-24.34 120.43zM380.95 519.68c0 74.27 60.4 134.67 134.67 134.67 74.28 0 134.67-60.4 134.67-134.67C650.3 445.4 589.9 385 515.63 385c-74.28 0.09-134.68 60.49-134.68 134.68z m0 0"  horiz-adv-x="1024" />

    
    <glyph glyph-name="mima" unicode="&#58982;" d="M343.42 559.74v77.34c0 30.77 12.22 60.28 33.98 82.03a116.012 116.012 0 0 0 82.03 33.98h116.01c30.77 0 60.27-12.22 82.03-33.98a115.977 115.977 0 0 0 33.98-82.03v-77.34h58c42.71 0 77.34-34.63 77.34-77.34v-386.7a77.333 77.333 0 0 0-77.34-77.33H285.41a77.333 77.333 0 0 0-77.33 77.33V482.4c0 42.71 34.62 77.34 77.34 77.34h58z m-58.01-38.67c-10.25 0-20.09-4.07-27.34-11.33a38.67 38.67 0 0 1-11.32-27.34v-386.7c0-21.36 17.31-38.67 38.67-38.67h464.04c21.36 0 38.67 17.31 38.67 38.67V482.4c0 21.35-17.31 38.67-38.67 38.67H285.41z m367.36 38.67v77.34c0 20.51-8.15 40.18-22.65 54.69a77.35 77.35 0 0 1-54.68 22.65H459.43c-42.71 0-77.34-34.63-77.34-77.34v-77.34h270.68zM459.43 424.39h116.01c10.68 0 19.33-8.66 19.33-19.34s-8.65-19.34-19.33-19.34H459.43c-10.68 0-19.34 8.66-19.34 19.34s8.66 19.34 19.34 19.34z m0 0"  horiz-adv-x="1024" />

    
    <glyph glyph-name="xiala1" unicode="&#58983;" d="M351.77 443.25c-9.79 10.13-9.79 26.19 0 36.32 9.43 9.77 24.99 10.04 34.75 0.61 0.21-0.2 0.41-0.41 0.61-0.61l130.34-133.8 130.25 133.74c9.43 9.77 24.99 10.04 34.75 0.61 0.21-0.2 0.41-0.41 0.61-0.61 9.79-10.13 9.79-26.19 0-36.32l-147.4-151.37c-10.1-9.93-26.3-9.93-36.41 0l-147.5 151.43z"  horiz-adv-x="1024" />

    
    <glyph glyph-name="cha" unicode="&#58984;" d="M550.42 386.82l195.62 194.6c9.25 9.2 9.29 24.12 0.09 33.37-9.23 9.27-24.11 9.3-33.36 0.09L517.1 420.26 323.14 614.8199999999999c-9.18 9.2-24.11 9.25-33.36 0.05-9.23-9.2-9.25-24.14-0.05-33.39l193.91-194.5-195.52-194.49c-9.25-9.21-9.3-24.12-0.09-33.37 4.6-4.63 10.66-6.96 16.73-6.96 6.02 0 12.04 2.29 16.64 6.87l195.57 194.53L712.7 157.23000000000002c4.6-4.63 10.64-6.94 16.71-6.94 6.04 0 12.06 2.31 16.66 6.89 9.23 9.21 9.25 24.11 0.04 33.36L550.42 386.82z m0 0"  horiz-adv-x="1024" />

    
    <glyph glyph-name="gengduo" unicode="&#58957;" d="M437.26 411.33c14.42 0 25.44-11.03 25.44-25.44 0-14.42-11.02-25.44-25.44-25.44-14.42 0-25.44 11.02-25.44 25.44 0 14.42 11.02 25.44 25.44 25.44z m84.08-0.15c14.42 0 25.44-11.02 25.44-25.44 0-14.42-11.03-25.44-25.44-25.44-14.42 0-25.44 11.03-25.44 25.44 0 14.42 11.02 25.44 25.44 25.44z m0 0M597.36 411.33c14.39 0 25.4-11.01 25.4-25.4 0-14.39-11.01-25.4-25.4-25.4-14.4 0-25.4 11.01-25.4 25.4-0.01 14.39 11 25.4 25.4 25.4z m0 0"  horiz-adv-x="1024" />

    
    <glyph glyph-name="daochu" unicode="&#58972;" d="M745.12732 896v-189.941961h200.098301zM95.021176 836.768627H0v-963.162352h771.095425v93.398169H95.021176zM690.21281 896H156.528105v-876.206013h865.765228V662.220131H690.246275L690.21281 896z m74.106144-487.119477h-111.953987v-263.713464H524.54902V408.880523h-111.953987l175.870326 224.04183 175.853595-224.04183z"  horiz-adv-x="1024" />

    
    <glyph glyph-name="chakanjieguo" unicode="&#58973;" d="M776.519995 350.153445H251.164778c-25.960141 0.433503-46.834962 20.174547-46.834962 44.434024v0.6836c0 24.692979 21.02488 45.117624 46.834962 45.117625h525.355217a45.971291 45.971291 0 0 0 46.66823-45.784552c0-24.259476-20.774782-43.933828-46.66823-44.517389v0.066692z m0-221.319786H251.164778c-25.960141 0.516869-46.834962 20.174547-46.834962 44.434024v0.6836c0 24.859711 21.02488 45.117624 46.834962 45.117624h525.355217c12.288133 0.183405 24.126091-4.551778 32.896183-13.155139a45.981295 45.981295 0 0 0 13.772047-32.646085c0-24.17611-20.774782-43.933828-46.66823-44.434024zM204.329816 616.590856c0 24.692979 21.02488 45.117624 46.834962 45.117624H582.394164c12.304807 0.183405 24.192784-4.568451 32.97955-13.188485s13.772046-20.391299 13.855412-32.696105c0-24.259476-20.858148-43.933828-46.834962-44.434024H251.164778c-25.960141 0.516869-46.834962 20.174547-46.834962 44.434024v0.766966zM932.347532 892.398593H98.238374c-51.169988 0-93.153055-40.515826-93.153054-89.968477v-840.3616c0-49.536017 41.883027-90.068516 93.153054-90.068516h834.092484c51.253354 0 93.153055 40.515826 93.153055 90.068516V802.430116c0 49.452651-41.883027 89.968477-93.136381 89.968477z m0 0"  horiz-adv-x="1029" />

    
    <glyph glyph-name="daoru" unicode="&#58974;" d="M745.12732 896v-189.941961h200.098301zM95.021176 836.768627H0v-963.162352h771.095425v93.398169H95.021176zM690.21281 896H156.528105v-876.206013h865.765228V662.220131H690.246275L690.21281 896zM412.595033 369.208889h111.953987V632.922353h127.815947v-263.713464h111.953987l-175.853595-224.04183-175.870326 224.04183z"  horiz-adv-x="1024" />

    
    <glyph glyph-name="fanhui" unicode="&#58975;" d="M321.045752 246.529673c-9.185882 0-18.371765 3.061961-25.51634 10.206536L10.716863 542.55268c-14.28915 14.28915-14.28915 36.743529 0 51.032679L295.529412 878.397908c14.28915 14.28915 36.743529 14.28915 51.03268 0s14.28915-36.760261 0-51.032679L88.303268 568.085752l259.279477-259.279477c14.28915-14.28915 14.28915-36.743529 0-51.03268-7.144575-7.161307-17.351111-11.243922-26.536993-11.243922z m0 0M568.077386 252.653595c-13.268497-13.268497-33.681569-13.268497-46.950066 0L229.170196 544.593987c-13.268497 13.268497-13.268497 33.681569 0 46.950065L521.12732 882.480523c13.268497 13.268497 33.681569 13.268497 46.950066 0M567.056732 415.79085s403.208366-78.791111 332.783268-542.21804c0 0 189.858301 329.905359 100.040784 563.668497C954.972026 521.955556 900.860654 696.520784 567.056732 698.562092v-282.771242z m0 0"  horiz-adv-x="1024" />

    
    <glyph glyph-name="fanganshezhi" unicode="&#58976;" d="M916.123475 313.780852l3.341382 296.497553L634.478366 896H130.380735C58.691379 896 0.350845 841.3684 0.350845 773.755531v-774.498989c0-67.412387 58.106637-127.256542 130.02989-127.256542h471.619396c-49.636233 32.461528-69.868303 109.396854-72.056908 142.342883-7.401162 111.167787 12.129218 358.947987 386.180252 299.437969zM638.705214 830.492201l227.097044-219.996606H638.705214V830.492201zM459.907851 187.643673H98.988449v65.724988h360.919402v-65.724988zM98.988449 417.062977V482.804673h675.310057v-65.724989H98.988449zM999.023168 108.269138l-38.526137 7.95249-0.885467 2.723226c-2.439209 7.51811-5.780591 15.069634-10.007439 23.022124l-1.336553 2.506036 20.716569 32.227632c6.231678 9.422698 8.904784 22.604451 0.668277 30.339751l-19.380017 18.22724c-4.895125 4.594401-11.126803 5.429746-15.587548 5.429746-5.997781 0-12.463356-1.887881-17.358481-5.02878l-33.631012-20.098414-2.673106 1.253018c-8.019317 3.775762-16.038635 7.117144-24.275142 9.623181l-2.890295 0.835345-8.687594 36.421067c-2.004829 10.258043-11.577889 21.568622-23.606866 21.568622h-27.382627c-11.577889 0-19.597207-11.110096-22.253606-21.986295l-9.57306-36.003394-2.890296-0.835345c-8.687594-2.723227-17.375188-6.081316-25.828884-10.258044l-2.673106-1.453501L696.678196 225.25093c-4.677935 3.140899-11.3607 5.02878-17.375187 5.02878-4.444038 0-10.692423-1.052535-15.587549-5.446453l-19.36331-18.210533c-8.236507-7.7353-5.563401-20.733277 0.668277-30.356458l21.602036-33.915029-1.336553-2.506037c-4.009659-7.534817-7.117144-14.651961-9.35587-21.568622l-0.885466-2.723227-38.292241-7.95249c-10.909613-1.887881-22.704692-10.892906-22.704692-22.186778v-25.74535c0-10.892906 11.577889-18.427723 23.372969-20.917053l38.526137-9.021732 0.885466-2.723226c2.222019-6.482282 5.129022-12.98127 8.687594-19.881224l1.336553-2.506037-21.58533-33.91503c-6.231678-9.422698-8.904784-22.403968-0.668276-30.139268l19.380017-18.22724c4.895125-4.594401 11.126803-5.429746 15.587548-5.429746 5.997781 0 12.463356 1.887881 17.358481 5.028781l34.516478 20.716569 2.673106-1.453501c8.453697-4.193435 17.141291-7.7353 26.046075-10.258043l2.890295-0.835346 9.57306-35.802911c2.673106-10.892906 10.458526-21.969588 22.270313-21.969588h27.382627c12.028976 0 21.602036 11.093389 23.606866 21.351433l8.687594 36.421066 2.890295 0.835346c8.019317 2.506037 16.021928 5.646936 24.041246 9.422698l2.673105 1.253018 33.614306-20.081707c4.677935-3.140899 11.126803-5.02878 17.375187-5.028781 4.444038 0 10.692423 1.052535 15.587548 5.646936l19.36331 18.22724c8.236507 7.7353 5.563401 20.71657-0.668276 30.139268l-20.699863 32.444822 1.336553 2.506036c3.792469 7.117144 7.117144 14.234288 9.57306 21.351433l0.885466 2.723226 38.526138 9.005026c11.577889 2.506037 23.389676 9.840371 23.389675 20.933759v25.74535c-0.718397 12.145924-12.513476 21.15095-23.439796 23.038831zM807.779156-25.920773c-58.774914 0-106.423024 44.791229-106.423025 100.074398 0 55.249755 47.648111 100.057691 106.423025 100.057691 58.79162 0 106.439731-44.791229 106.439731-100.057691-0.016707-55.283169-47.664818-100.074398-106.439731-100.074398z"  horiz-adv-x="1024" />

    
    <glyph glyph-name="fuhaoku" unicode="&#58977;" d="M510.025621 553.194248h-4.266667c-19.191634-55.215686-40.491503-116.806275-60.753987-169.194248l-17.049934-44.607582h161.982745L572.904575 384c-21.316601 52.387974-41.562353 115.400784-62.878954 169.194248zM931.438431 896H92.879477C41.696209 895.949804 0.200784 854.471111 0.16732 803.287843v-838.558954c0-51.166536 41.562353-92.712157 92.712157-92.712157h838.558954c51.183268 0.050196 92.678693 41.528889 92.712157 92.712157V803.287843C1024.08366 854.454379 982.621699 895.91634 931.438431 896zM672.008366 120.637908l-45.82902 121.05621H391.730196l-45.82902-121.05621H151.943529l246.178301 526.724184h228.074248l246.178301-526.724184H672.008366z"  horiz-adv-x="1024" />

    
    <glyph glyph-name="fanganxiangqing" unicode="&#58978;" d="M872.04202 577.060202L688.329697 776.727273c-8.675556 9.464242-20.622222 17.428687-33.422222 23.854545v-236.722424l226.857373-0.077576c-3.090101 4.706263-6.206061 9.477172-9.68404 13.278384M654.907475 312.68202H367.967677c-19.807677 0-35.865859 16.058182-35.865859 35.865859 0 19.807677 16.058182 35.865859 35.865859 35.865858h286.939798c19.807677 0 35.865859-16.058182 35.865858-35.865858 0-19.807677-16.058182-35.865859-35.865858-35.865859m0-179.329293H367.967677c-19.807677 0-35.865859 16.058182-35.865859 35.865859 0 19.807677 16.058182 35.865859 35.865859 35.865858h286.939798c19.807677 0 35.865859-16.058182 35.865858-35.865858 0-19.807677-16.058182-35.865859-35.865858-35.865859m250.854141 358.671515H654.972121c-39.667071 0.038788-71.809293 32.206869-71.809293 71.87394V814.81697H188.418586C148.854949 814.700606 116.854949 782.571313 116.893737 743.007677V25.858586c-0.064646-39.550707 31.896566-71.68 71.447273-71.835152h646.167273c39.576566 0.155152 71.550707 32.336162 71.447273 71.912728V490.188283c0 0.607677-0.18101 1.254141-0.206869 1.861818"  horiz-adv-x="1024" />

    
    <glyph glyph-name="qiehuan" unicode="&#58979;" d="M1026.151261 466.081428V826.592665c0 30.467852-25.51495 55.849391-56.132891 55.849391H592.397108c-30.61794 0-56.13289-25.381539-56.132891-55.849391V466.081428c0-30.467852 25.51495-55.849391 56.132891-55.849391h377.621262c30.61794 0 56.13289 25.381539 56.132891 55.849391zM61.686144 354.36597c-30.61794 0-56.13289-25.381539-56.13289-55.849391v-360.511237c0-30.467852 25.51495-55.849391 56.13289-55.849391h377.621263c30.61794 0 56.13289 25.381539 56.13289 55.849391V298.516579c0 30.467852-25.51495 55.849391-56.13289 55.849391H61.686144z m209.222592 243.726141h-56.132891c0 96.473194 81.647841 177.7208 178.604651 177.7208h20.411961c15.30897 0 25.51495 10.155951 25.51495 25.381539V867.216468c0 15.225588-10.20598 25.381539-25.51495 25.381539h-20.411961c-163.295681 0-295.973422-132.010683-295.973422-294.505896H31.068204c-10.20598 0-15.30897-10.155951-15.30897-20.311901 0-5.086314 0-5.086314 5.10299-10.155951l112.265781-126.941046c10.20598-10.155951 25.51495-10.155951 35.72093 0l112.265781 126.941046c5.10299 5.086314 5.10299 15.225588 0 20.311902-5.10299 5.086314-5.10299 10.155951-10.20598 10.15595zM760.795779 171.575533h56.13289c0-96.473194-81.647841-177.7208-178.604651-177.7208h-20.41196c-15.30897 0-25.51495-10.155951-25.51495-25.381539v-71.091655c0-15.242264 10.20598-25.381539 25.51495-25.381539h20.41196c163.295681 0 295.973422 132.010683 295.973422 294.505895h66.33887c10.20598 0 15.30897 5.086314 15.30897 15.225588 0 5.086314 0 5.086314-5.10299 10.155951l-112.26578 126.941046c-10.20598 10.155951-25.51495 10.155951-35.720931 0l-112.26578-126.941046c-5.10299-5.086314-5.10299-15.242264 0-20.311901 0 5.086314 5.10299 0 10.20598 0z m0 0"  horiz-adv-x="1029" />

    
    <glyph glyph-name="gongxiang" unicode="&#58980;" d="M734.537745 351.035765c13.602435-68.428918 74.813394-109.502938 142.825571-109.502938 74.813394 0 142.825571 61.594361 142.825571 143.725732 0 82.131371-68.012177 150.560289-142.825571 150.560289-68.012177 0-129.223136-47.908577-142.825571-116.337496H421.681733s-6.801218 27.371567-6.801218 34.222794L646.121916 638.47056c27.204871-20.53701 54.409741-34.222794 88.415829-34.222794 81.614612 0 142.825571 68.428918 142.825571 143.709062 0 82.131371-68.012177 143.725732-142.825571 143.725732-81.614612 6.851227-149.626789-61.594361-149.626788-136.874505 0-20.53701 6.801218-41.057351 13.602435-61.594361L380.874427 515.281838c-40.807306 47.908577-102.018265 82.114702-163.229224 82.114701C95.223285 597.413209 0.006238 501.596054 0.006238 378.407332s95.217047-212.15465 210.837747-212.15465c68.012177 0 129.223136 34.222794 163.229224 82.131371l238.042618-177.931856c-6.801218-20.53701-13.602435-34.222794-13.602435-54.743135 0-82.114702 68.012177-143.709062 142.825571-143.709062 81.614612 0 142.825571 68.428918 142.825571 143.709062 0 82.131371-68.012177 143.725732-142.825571 143.725733-34.006088 0-68.012177-13.685784-95.217047-34.222794L414.880515 309.978414c6.801218 13.685784 6.801218 41.057351 6.801218 41.057351h312.856012z m0 0"  horiz-adv-x="1024" />

    
    <glyph glyph-name="guanbi" unicode="&#58985;" d="M740.014367 351.734605H552.82492v-187.206165c0-23.639-19.158623-42.797623-42.797623-42.797623s-42.797623 19.158623-42.797623 42.797623V351.734605H280.023509c-23.639 0-42.797623 19.158623-42.797622 42.797623s19.158623 42.797623 42.797622 42.797622h187.206165V624.536015c0 23.639 19.158623 42.797623 42.797623 42.797623s42.797623-19.158623 42.797623-42.797623v-187.206165h187.189447c23.639 0 42.797623-19.158623 42.797623-42.797622 0.016718-23.622282-19.158623-42.797623-42.797623-42.797623M512.23405 384.635277m-511.364723 0a511.364723 511.364723 0 1 1 1022.729445 0 511.364723 511.364723 0 1 1-1022.729445 0ZM512.23405 384.635277m-411.308562 0a411.308561 411.308561 0 1 1 822.617123 0 411.308561 411.308561 0 1 1-822.617123 0ZM541.423366 385.337426l171.207209 170.321165c8.091426 8.05799 8.141579 21.114609 0.083589 29.206034a20.619761 20.619761 0 0 1-29.206034 0.083589L512.250767 414.610331 342.498008 584.881343c-8.041272 8.05799-21.097891 8.091426-29.206034 0.033435-8.074708-8.05799-8.091426-21.131326-0.033436-29.222752L482.977862 385.471168 311.854241 215.25031c-8.091426-8.05799-8.141579-21.114609-0.083589-29.206034 4.028995-4.045713 9.328544-6.085287 14.644812-6.085287 5.266114 0 10.532228 2.006139 14.561222 6.018416l171.157057 170.254294 171.307516-171.825769c4.028995-4.045713 9.311827-6.068569 14.628094-6.06857 5.282832 0 10.548945 2.022856 14.57794 6.035134 8.074708 8.05799 8.091426 21.097891 0.033436 29.206034L541.423366 385.337426z m0 0"  horiz-adv-x="1024" />

    
    <glyph glyph-name="guanliantuxing" unicode="&#58986;" d="M856.679697 405.751658h-257.003909V662.755567h257.003909V405.751658z m-428.339849-42.833985c0-23.659084-19.174901-42.833985-42.833984-42.833985h-171.33594c-23.659084 0-42.833985 19.174901-42.833985 42.833985s19.174901 42.833985 42.833985 42.833985h171.33594c11.444705 0 21.684705-4.634771 29.347972-11.913202a42.474246 42.474246 0 0 0 13.486012-30.920783zM599.675788 191.581734c0-23.659084-19.174901-42.833985-42.833985-42.833985h-342.671879c-23.659084 0-42.833985 19.191633-42.833985 42.833985 0 23.659084 19.174901 42.833985 42.833985 42.833985h342.671879c11.444705 0 21.667973-4.634771 29.347972-11.913202a42.474246 42.474246 0 0 0 13.486013-30.920783zM942.230542 894.326797H85.75163C38.517122 894.376994 0.16732 856.194512 0 808.960004v-851.593161c0-10.792156 2.225359-21.032156 5.906405-30.535946 0.351373-0.853333 0.468497-1.807059 0.819869-2.660392 1.020654-2.39268 2.526536-4.534379 3.764706-6.843398 1.372026-2.576732 2.526536-5.270588 4.149542-7.629804 0.853333-1.288366 1.974379-2.258823 2.877909-3.463529 2.39268-3.162353 4.802091-6.425098 7.629803-9.16915 1.32183-1.32183 2.911372-2.309019 4.283399-3.563921 2.744052-2.39268 5.404444-4.885751 8.43294-6.893595 0.602353-0.435033 1.372026-0.686013 2.007843-1.121045 3.982222-2.576732 8.0983-4.919215 12.549019-6.759739 4.333595-1.840523 8.951634-3.128889 13.619869-4.199738 0.803137-0.217516 1.589542-0.602353 2.442876-0.769673 5.571764-1.15451 11.344313-1.756863 17.300914-1.756863h856.46218c47.234507-0.050196 85.58431 38.132286 85.75163 85.366793V808.909808C1027.88178 856.17778 989.481782 894.393726 942.230542 894.326797z"  horiz-adv-x="1029" />

    
    <glyph glyph-name="fuwuxiangqing" unicode="&#58987;" d="M864.701142 895.381915H157.210841C70.745743 895.381915 0.000054 824.636226 0.000054 738.171128V30.680827c0-86.465097 70.745689-157.227491 157.210787-157.227492h707.490301c86.465097 0 157.227491 70.745689 157.227492 157.227492V738.171128c0 86.465097-70.762394 157.210786-157.227492 157.210787zM275.131459 109.294573c-22.017194 0-39.306873 17.289678-39.306873 39.306872 0 22.017194 17.289678 39.306873 39.306873 39.306873s39.306873-17.289678 39.306873-39.306873c0-22.017194-17.289678-39.306873-39.306873-39.306872z m0 235.824532c-22.017194 0-39.306873 17.289678-39.306873 39.306873s17.289678 39.306873 39.306873 39.306872 39.306873-17.289678 39.306873-39.306872c0-22.017194-17.289678-39.306873-39.306873-39.306873z m0 235.824532c-22.017194 0-39.306873 17.289678-39.306873 39.306873s17.289678 39.306873 39.306873 39.306873 39.306873-17.289678 39.306873-39.306873c0-22.017194-17.289678-39.306873-39.306873-39.306873z m471.649065-471.649064H432.358951c-22.017194 0-39.306873 17.289678-39.306873 39.306872 0 22.017194 17.289678 39.306873 39.306873 39.306873h314.421573c22.017194 0 39.306873-17.289678 39.306872-39.306873s-17.289678-39.306873-39.306872-39.306872z m0 235.824532H432.358951c-22.017194 0-39.306873 17.289678-39.306873 39.306873s17.289678 39.306873 39.306873 39.306872h314.421573c22.017194 0 39.306873-17.289678 39.306872-39.306872 0-22.017194-17.289678-39.306873-39.306872-39.306873z m0 235.824532H432.358951c-22.017194 0-39.306873 17.289678-39.306873 39.306873s17.289678 39.306873 39.306873 39.306873h314.421573c22.017194 0 39.306873-17.289678 39.306872-39.306873s-17.289678-39.306873-39.306872-39.306873z"  horiz-adv-x="1024" />

    
    <glyph glyph-name="quxiaoguanlian" unicode="&#58988;" d="M85.75163 894.326797C38.517122 894.376994 0.16732 856.194512 0 808.960004v-851.593161c0-10.792156 2.225359-21.032156 5.906405-30.535946 0.351373-0.853333 0.468497-1.807059 0.819869-2.660392 1.020654-2.39268 2.526536-4.534379 3.764706-6.843398 1.372026-2.576732 2.526536-5.270588 4.149542-7.629804 0.853333-1.288366 1.974379-2.258823 2.877909-3.463529 2.39268-3.162353 4.802091-6.425098 7.629803-9.16915 1.32183-1.32183 2.911372-2.309019 4.283399-3.563921 2.744052-2.39268 5.404444-4.885751 8.43294-6.893595 0.602353-0.435033 1.372026-0.686013 2.007843-1.121045 3.982222-2.576732 8.0983-4.919215 12.549019-6.759739 4.333595-1.840523 8.951634-3.128889 13.619869-4.199738 0.803137-0.217516 1.589542-0.602353 2.442876-0.769673 5.571764-1.15451 11.344313-1.756863 17.300914-1.756863h650.223236L279.725999 894.326797H85.75163z m498.898799-693.575913a42.502691 42.502691 0 0 0 13.486012-30.920783c0-23.659084-19.174901-42.833985-42.833984-42.833985h-342.671879c-23.659084 0-42.833985 19.191633-42.833985 42.833985 0 23.659084 19.174901 42.833985 42.833985 42.833985h342.671879c11.444705 0 21.667973-4.618039 29.347972-11.913202z m-157.849927 140.415156c0-23.659084-19.174901-42.833985-42.833985-42.833985h-171.335939c-23.659084 0-42.833985 19.174901-42.833985 42.833985s19.174901 42.833985 42.833985 42.833985h171.335939c11.444705 0 21.684705-4.634771 29.347973-11.913202a42.474246 42.474246 0 0 0 13.486012-30.920783zM942.230542 894.326797h-580.601279l454.776449-1022.326747h125.858294c47.234507-0.050196 85.58431 38.132286 85.75163 85.366793V808.909808C1027.88178 856.17778 989.481782 894.393726 942.230542 894.326797z m-87.090192-510.326772h-257.003909V641.003934h257.003909V384.000025z"  horiz-adv-x="1028" />

    
    <glyph glyph-name="quanxian" unicode="&#58989;" d="M1014.684792 650.881236C986.721265 812.206705 834.510702 919.829491 674.790794 891.464573c-159.502488-28.381642-294.269295-152.628678-266.105073-313.753451 6.071029-34.854061 22.895974-89.175555 42.764796-128.294389l-436.997011-418.114941c-10.737192-15.403354-16.824945-43.166186-13.580373-61.814112l12.560172-71.547829c-11.958087 68.905342 3.244572-24.936375 12.560173-24.51826l95.464003-1.421591c18.447231 3.244572 41.543901 18.848622 51.679007 34.653366l133.111073 130.869977 1.003476 1.220895 100.130166-7.910734 262.743428 258.478656c43.985692-7.49262 107.003976-4.866858 144.500524 1.622286C973.542282 319.316088 1043.066434 489.756463 1014.684792 650.881236zM92.875144 2.619108l-25.070172-15.788021 5.836885 28.364918L492.810447 404.461015l18.815173-13.162258-418.750476-388.679649z m780.536972 565.776413c-43.985692-63.235704-88.774164-18.647926-151.391058 25.739156-62.633618 44.387082-119.580873 71.531104-75.595181 134.984227 43.985692 63.235704 130.318065 78.839753 192.951683 34.452671 62.616894-44.587777 78.020248-131.940351 34.034556-195.176054z m0 0"  horiz-adv-x="1025" />

    
    <glyph glyph-name="rizhi" unicode="&#58990;" d="M930.668758 822.412549H744.725752v23.257516c0 25.717124-20.848105 46.548497-46.548497 46.548497s-46.548497-20.831373-46.548497-46.548497v-23.257516h-279.257516v23.257516c0 25.717124-20.831373 46.548497-46.548497 46.548497-25.700392 0-46.531765-20.831373-46.531765-46.548497v-23.257516H92.678693C41.562353 822.412549 0 778.741961 0 725.082353v-90.219085h1024v90.219085c0 53.659608-41.830065 97.330196-93.331242 97.330196m-232.491503-426.666667c25.700392 0 46.548497-20.831373 46.548497-46.548496 0-25.700392-20.848105-46.531765-46.548497-46.531765H325.822745c-25.700392 0-46.531765 20.831373-46.531765 46.531765 0 25.717124 20.831373 46.548497 46.531765 46.548496h372.35451zM279.274248 116.471634c0 25.717124 20.831373 46.548497 46.531765 46.548497h372.371242c25.700392 0 46.548497-20.831373 46.548497-46.548497 0-25.700392-20.848105-46.548497-46.548497-46.548497H325.822745c-25.717124 0-46.548497 20.848105-46.548497 46.548497z m698.193987 425.294641H0v-571.850458c0-53.626144 41.612549-97.28 92.712157-97.28h838.558954c51.099608 0 92.712157 43.653856 92.712157 97.28V541.766275h-46.515033z"  horiz-adv-x="1024" />

    
    <glyph glyph-name="qidong" unicode="&#58991;" d="M0.635817 384C0.635817 666.503529 229.647059 895.514771 512.150588 895.514771 794.654118 895.514771 1023.665359 666.503529 1023.665359 384S794.654118-127.514771 512.150588-127.514771C229.647059-127.514771 0.635817 101.496471 0.635817 384z m668.812549-11.31085c7.027451 6.207582 7.027451 16.397386 0 22.604968L428.992418 600.311634c-3.463529 3.145621-7.68 4.467451-11.81281 4.467451-8.934902 0-17.351111-6.291242-17.351111-15.728105v-410.10196c0-9.436863 8.432941-15.728105 17.351111-15.728105 4.13281 0 8.349281 1.40549 11.81281 4.467451L669.448366 372.68915z"  horiz-adv-x="1024" />

    
    <glyph glyph-name="shanchu" unicode="&#58992;" d="M567.337374 385.848889l328.054949 326.348283c15.515152 15.424646 15.579798 40.442828 0.155152 55.95798-15.476364 15.54101-40.442828 15.592727-55.945051 0.155151L511.45697 441.923232 186.181818 768.193939c-15.398788 15.437576-40.442828 15.515152-55.94505 0.077576-15.476364-15.437576-15.515152-40.481616-0.077576-55.996768l325.197576-326.180202L127.45697 59.940202c-15.515152-15.437576-15.592727-40.442828-0.155152-55.95798 7.718788-7.757576 17.881212-11.675152 28.056566-11.675151 10.084848 0 20.182626 3.827071 27.901414 11.52l327.964444 326.21899 328.248889-329.231516c7.718788-7.757576 17.842424-11.636364 28.017778-11.636363 10.123636 0 20.221414 3.878788 27.940202 11.558788 15.476364 15.437576 15.515152 40.442828 0.077576 55.94505L567.337374 385.848889z m0 0"  horiz-adv-x="1024" />

    
    <glyph glyph-name="shangchuan" unicode="&#58993;" d="M89.067144 244.156859H0.075294v-110.064906c0-51.545364 39.87156-93.457331 88.941676-93.457331h378.244631v-75.595407h-133.462688c-24.568507 0-44.521012-20.838911-44.521012-46.52797 0-25.722508 19.952505-46.511245 44.521012-46.511245h355.950675c24.551783 0 44.504287 20.788737 44.504287 46.511245 0 25.689059-19.952505 46.52797-44.504287 46.52797h-133.462688v75.595407h378.244631c49.070116 0 88.941676 41.911967 88.941676 93.457331v110.064906H89.067144zM934.514806 893.089911H89.01697C39.946854 893.089911 0.075294 851.12777 0.075294 799.582406v-447.33415h1023.381188V799.582406c0 51.545364-39.854835 93.507505-88.941676 93.507505"  horiz-adv-x="1024" />

    
    <glyph glyph-name="renwuxiangqing" unicode="&#58994;" d="M977.046106 585.874668L739.477705 844.075767c-11.226861 12.245966-26.663795 22.537255-43.220074 30.840455v-306.115739l293.368574-0.10024c-3.992887 6.081216-8.019187 12.245966-12.529979 17.157718M696.257631 290.78531h-371.054443c-25.611277 0-46.377629 20.766352-46.377629 46.377629 0 25.627984 20.766352 46.377629 46.377629 46.377628h371.054443c25.611277 0 46.377629-20.766352 46.377629-46.377628 0-25.611277-20.766352-46.377629-46.377629-46.377629m0-231.904851h-371.054443c-25.611277 0-46.377629 20.766352-46.377629 46.377629 0 25.627984 20.766352 46.377629 46.377629 46.377629h371.054443c25.611277 0 46.377629-20.766352 46.377629-46.377629s-20.766352-46.377629-46.377629-46.377629m324.376096 417.031113H696.341165c-51.289381 0.05012-92.855497 41.64965-92.855498 92.939031V893.326938H93.014325C41.858597 893.176578 0.49296 851.627168 0.54308 800.488147v-833.828333c-0.083533-51.139021 41.248691-92.688431 92.387711-92.88891h835.599237c51.189141 0.20048 92.521365 41.816716 92.387711 92.98915V473.53923c0 0.785212-0.233893 1.620544-0.267306 2.405756"  horiz-adv-x="1024" />

    
    <glyph glyph-name="shanchu1" unicode="&#58995;" d="M968.818023 767.016999l-213.475346-32.021302-15.827767 112.407073A48.544028 48.544028 0 0 1 720.278853 879.573704C698.44917 896.049877 665.247436 894.304168 647.540953 891.743794L309.970594 844.326996c-62.014255-8.728548-80.003377-40.816353-76.22932-67.933042l14.630709-104.060918 1.197058-8.429284-142.815671-22.527967-67.367764-9.493335a42.562063 42.562063 0 0 1-34.299038-26.052637 42.588664 42.588664 0 0 1 6.001916-42.661818 42.550425 42.550425 0 0 1 40.167947-15.561754l31.323018 4.422464 24.173921 3.358413 5.619523 0.798039 109.065285 17.806238 85.040996 11.953954 97.211086 13.666412 255.372376 35.878489 300.262052 44.224643 21.314283 2.97602c23.276128 3.242032 39.502914 24.772451 36.22763 48.048578-3.258658 23.342631-24.622818 39.652547-48.048578 36.277508z m-607.673199-341.776688c0 23.508889 19.053173 42.562063 42.562062 42.562063s42.562063-19.053173 42.562063-42.562063v-279.961942c0-23.508889-19.053173-42.562063-42.562063-42.562063s-42.562063 19.053173-42.562062 42.562063V425.240311z m255.35575 0c0 23.508889 19.053173 42.562063 42.562062 42.562063s42.562063-19.053173 42.562063-42.562063v-279.961942c0-23.508889-19.053173-42.562063-42.562063-42.562063s-42.562063 19.053173-42.562062 42.562063V425.240311zM148.33451 479.423812v-522.316313c0-27.399328 13.284019-51.623127 33.500999-67.234758 14.381322-11.072787 32.170934-17.872741 51.673004-17.872741h595.785748a84.319436 84.319436 0 0 1 51.623127 17.872741c20.266857 15.57838 33.550876 39.752301 33.550876 67.234758v547.986557H147.170704l1.147181-25.703496 0.016625 0.033252z"  horiz-adv-x="1024" />

    
    <glyph glyph-name="shangyi" unicode="&#58996;" d="M511.316741 896c-282.392872 0-511.314905-228.922033-511.314905-511.314905s228.922033-511.314905 511.314905-511.314905 511.314905 228.922033 511.314905 511.314905-228.938742 511.314905-511.314905 511.314905zM296.848545 623.398975h428.919682c23.443621 0 42.442479-19.165954 42.442479-42.8268 0-23.660847-18.998858-42.826801-42.442479-42.826801H296.714867c-22.775236 0-42.292092 17.144088-42.292092 43.010607-0.01671 27.587611 18.798342 42.642995 42.42577 42.642994z m496.259521-518.934499c-16.007833-16.14151-41.974609-16.14151-57.982442 0l-222.739466 224.744623-222.739467-224.744623c-16.007833-16.14151-41.974609-16.14151-57.982442 0-16.007833 16.158219-16.007833 42.342221 0 58.50044l251.730688 254.019908a40.708019 40.708019 0 0 0 28.991221 12.114487c10.493652 0 20.987305-4.043732 28.974511-12.114487l251.730687-254.019908c16.024542-16.14151 16.024542-42.342221 0.01671-58.50044z m0 0"  horiz-adv-x="1024" />

    
    <glyph glyph-name="shuaxin" unicode="&#58997;" d="M510.755425 894.8638C229.128273 894.8638 0.000232 665.735759 0.000232 384.108607s229.128041-510.755193 510.755193-510.755193 510.755193 229.128041 510.755193 510.755193S792.382577 894.8638 510.755425 894.8638z m-2.957461-786.701346c-112.584025 0-208.509358 71.563874-245.41914 171.482614l0.367594 0.150379c-2.289108 4.611634-3.859737 9.62428-3.859737 15.121482 0 19.031345 15.42224 34.436877 34.436877 34.436877 15.305279 0 27.836893-10.142253 32.331565-23.943738l0.484556 0.200506c26.583732-74.771967 97.863556-128.557657 181.658285-128.557657 106.401762 0 192.953447 86.551685 192.953447 192.953447s-86.551685 192.953447-192.953447 192.953447c-23.342221 0-45.564951-4.544799-66.300596-12.197438l24.277915-46.56748c2.840499-3.057714 4.594925-7.168084 4.594925-11.696174 0-9.62428-9.607571-17.042996-17.560969-17.226793h-0.350885c-0.250632 0-0.484556 0-0.735188 0.016709l-172.067423 7.385298c-6.132137 0.267341-11.696174 3.776193-14.536673 9.239977-2.840499 5.447075-2.556449 12.013641 0.735188 17.210084l92.43319 145.333312c3.291637 5.179734 9.139724 8.170613 15.271861 7.953398 6.132137-0.267341 11.696174-3.776193 14.536672-9.239977l21.23691-40.719393c30.42676 12.414653 63.627184 19.382231 98.465073 19.38223 144.3642 0 261.84391-117.463001 261.84391-261.843909 0-144.380909-117.463001-261.827201-261.84391-261.827201z"  horiz-adv-x="1024" />

    
    <glyph glyph-name="tianjiatufushu" unicode="&#58998;" d="M486.450196 86.855948h480.343007c30.653072 0 56.202876-25.549804 56.202875-61.322876v-91.975948c0-30.653072-25.549804-61.322876-56.202875-61.322876H486.450196c-30.653072 0-56.202876 25.549804-56.202876 61.322876v10.223268H108.306405c-20.446536 0-35.773072 15.326536-35.773072 35.773072V679.47085h-15.326536C26.553725 679.47085 1.003922 710.123922 1.003922 740.793725V832.769673C1.003922 868.542745 26.553725 894.092549 57.206797 894.092549h97.079216c30.653072 0 56.202876-25.549804 56.202876-61.322876v-91.975948c0-30.653072-25.549804-61.322876-56.202876-61.322875h-15.326536v-264.817778h286.167843v10.223268c0 30.653072 25.549804 61.322876 56.202876 61.322876h480.343007c30.653072 0 56.202876-25.549804 56.202875-61.322876v-91.975948c0-30.653072-25.549804-61.322876-56.202875-61.322876H481.330196c-30.653072 0-56.202876 25.549804-56.202876 61.322876v10.223268H138.976209V10.206536h286.167843v15.326536c-0.016732 30.653072 25.533072 61.322876 61.306144 61.322876z m480.343007 592.614902H338.254641c-35.773072 0-61.322876 30.653072-61.322876 61.322875V832.769673c0 35.773072 25.549804 61.322876 61.322876 61.322876H966.776471c30.653072 0 56.202876-25.549804 56.202875-61.322876v-91.975948c0.016732-30.653072-25.533072-61.322876-56.186143-61.322875z"  horiz-adv-x="1024" />

    
    <glyph glyph-name="sousuo" unicode="&#58999;" d="M427.402876 886.91451C191.347451 886.91451 0 695.550327 0 459.511634c0-236.055425 191.347451-427.402876 427.386144-427.402876 236.055425 0 427.402876 191.347451 427.402876 427.402876C854.805752 695.550327 663.441569 886.91451 427.402876 886.91451z m0-770.409412c-189.122092 0-343.006536 153.867712-343.006536 343.006536 0 189.122092 153.867712 343.006536 343.006536 343.006536s343.006536-153.867712 343.006536-343.006536c-0.016732-189.122092-153.884444-343.006536-343.006536-343.006536zM1013.642876-50.229542L824.48732 138.959477c-17.735948-21.935686-37.446275-42.11451-58.511895-60.837647l188.001046-188.017778c8.248889-8.248889 19.041046-12.364967 29.833202-12.364967s21.584314 4.116078 29.833203 12.364967c16.481046 16.481046 16.481046 43.185359 0 59.666406z"  horiz-adv-x="1026" />

    
    <glyph glyph-name="tianjia" unicode="&#59000;" d="M739.572131 353.870616H553.391825v-186.196935c0-23.511561-19.055339-42.5669-42.566901-42.5669s-42.5669 19.055339-42.5669 42.5669V353.870616H282.061089c-23.511561 0-42.5669 19.055339-42.5669 42.5669s19.055339 42.5669 42.5669 42.566901h186.196935V625.201351c0 23.511561 19.055339 42.5669 42.5669 42.5669s42.5669-19.055339 42.566901-42.5669v-186.196934h186.180306c23.511561 0 42.5669-19.055339 42.566901-42.566901 0.016628-23.494934-19.055339-42.5669-42.566901-42.5669M510.824924 895.201871c-281.656534 0-510.802806-229.179527-510.802806-510.802806 0-281.656534 229.129644-510.802806 510.802806-510.802806 281.656534 0 510.802806 229.129644 510.802806 510.802806 0 281.623279-229.146272 510.802806-510.802806 510.802806"  horiz-adv-x="1029" />

    
    <glyph glyph-name="tingzhi" unicode="&#59001;" d="M512.150588 895.682092C230.734641 895.682092 0.468497 665.415948 0.468497 384s230.249412-511.682092 511.682091-511.682092C793.566536-127.682092 1023.83268 102.56732 1023.83268 384 1023.83268 665.415948 793.583268 895.682092 512.150588 895.682092z m-57.55817-722.756602c0-19.191634-19.191634-31.974902-44.774902-31.974902s-44.774902 12.783268-44.774902 31.974902V595.057778c0 19.191634 19.191634 31.974902 44.774902 31.974902s44.774902-12.8 44.774902-31.974902v-422.132288z m211.057778 0c0-19.191634-19.191634-31.974902-44.774902-31.974902s-44.774902 12.783268-44.774902 31.974902V595.057778c0 19.191634 19.191634 31.974902 44.774902 31.974902s44.774902-12.8 44.774902-31.974902v-422.132288z"  horiz-adv-x="1024" />

    
    <glyph glyph-name="shijian" unicode="&#59002;" d="M512 821.860392c59.147712 0 116.488366-11.56183 170.415686-34.384314 52.136993-22.05281 98.969935-53.626144 139.193726-93.866666s71.813856-87.073464 93.866666-139.193726c22.805752-53.92732 34.384314-111.267974 34.384314-170.398954 0-59.147712-11.578562-116.488366-34.384314-170.415686-22.05281-52.136993-53.626144-98.969935-93.866666-139.193726-40.240523-40.223791-87.073464-71.813856-139.193726-93.866666-53.92732-22.805752-111.267974-34.384314-170.415686-34.384314-59.13098 0-116.471634 11.578562-170.398954 34.384314-52.136993 22.05281-98.969935 53.626144-139.193726 93.866666-40.240523 40.240523-71.813856 87.073464-93.866666 139.193726C85.71817 267.528366 74.139608 324.852288 74.139608 384c0 59.13098 11.56183 116.471634 34.384314 170.398954 22.05281 52.136993 53.626144 98.969935 93.866666 139.193726 40.240523 40.240523 87.073464 71.813856 139.193726 93.866666 53.944052 22.822484 111.267974 34.401046 170.415686 34.401046M512 894.828758C229.881307 894.828758 1.171242 666.118693 1.171242 384 1.171242 101.864575 229.881307-126.828758 512-126.828758c282.135425 0 510.828758 228.710065 510.828758 510.828758S794.118693 894.828758 512 894.828758zM730.386405 347.507451H512c-20.145359 0-36.475817 16.330458-36.475817 36.492549V710.943791c0 20.145359 16.330458 36.492549 36.475817 36.492549 20.162092 0 36.492549-16.34719 36.492549-36.492549v-290.451242h181.893856c20.162092 0 36.492549-16.330458 36.492549-36.475817 0-20.162092-16.34719-36.509281-36.492549-36.509281z"  horiz-adv-x="1024" />

    
    <glyph glyph-name="tuichu" unicode="&#59003;" d="M901.772549 309.944052h-0.317908l-3.145621 2.995033v88.512418H473.43268v65.639739h424.87634v91.306666l125.724444-119.684183v-0.351372l-122.260915-128.418301z m-225.045752 520.031373H154.553725l200.282353-99.187451c26.620654-13.184837 48.255163-45.511111 48.255164-72.198693l3.128889-565.090719c2.292288 0.535425 4.684967 0.819869 7.144575 0.819869h264.165229V301.594771h62.862222v-238.699085c0-17.351111-14.071634-31.422745-31.422745-31.422745H413.347974c-2.342484 0-4.618039 0.267712-6.809935 0.752941l0.90353-150.420915c0-8.951634-7.228235-12.364967-16.146406-7.629804L39.152941 49.459869C17.501699 60.938039 0.016732 88.060654 0.050196 110.046536L1.204706 852.814641c-0.769673 2.72732-1.204706 5.621961-1.204706 8.600261 0 3.396601 0.552157 6.659346 1.539346 9.738039 1.556078 11.678954 8.801046 18.739869 18.99085 19.760523 3.396601 1.254902 7.060915 1.940915 10.892549 1.940915h676.710065c17.351111 0 31.422745-14.071634 31.422746-31.422745 0-2.175163-0.217516-4.316863-0.652549-6.35817 0.418301-2.058039 0.652549-4.183007 0.652549-6.374902v-277.734902h-62.862223V829.975425h0.033464z"  horiz-adv-x="1024" />

    
    <glyph glyph-name="xiazai" unicode="&#59004;" d="M364.657778 766.694902h292.057516v-77.78719H364.657778zM364.657778 893.004967h292.057516v-90.771242H364.657778zM934.701176 181.575948L900.015686-12.130719H121.273725L86.621699 181.575948H0V-127.163399h1022.176209V181.575948h-87.475033z m0 0M913.250719 538.352941H656.715294v111.602615H364.657778v-112.489412H111.368366L509.824837 101.07817l403.425882 437.274771z m0 0"  horiz-adv-x="1024" />

    
    <glyph glyph-name="xinjian" unicode="&#59005;" d="M998.366536 624.171503L753.643922 868.843922c-34.68549 34.451242-90.721046 34.317386-125.222484-0.317909l-93.247582-93.281046 62.092549-61.791372 1.338562 0.284444h0.050196L843.160261 469.333333l41.94719-42.081045 20.546928-20.613857 92.360784 92.360785c34.60183 34.501438 34.735686 90.503529 0.317909 125.155555m-765.60732-680.993464l-18.82353 18.856994-122.244183 122.695947-19.49281 19.593203-56.336732 60.051242-12.71634 13.569673v-216.094118C3.112157-86.805752 42.666667-126.326797 91.256471-126.326797H304.690196l-16.129673 15.510588-55.851503 53.944052v0.050196h0.016732z m303.31817 707.982222l-62.627974 62.376994L30.251503 270.339346l62.627974-62.627973 244.35451-244.588759 62.544314-62.326797L841.286275 342.303791l-60.820916 64.368104-244.421437 244.471634z"  horiz-adv-x="1025" />

    
    <glyph glyph-name="tufuxiangqing" unicode="&#59006;" d="M0 782.506667C0 845.201569 50.798431 896 113.493333 896h797.013334C973.201569 896 1024 845.201569 1024 782.506667v-797.013334c0-62.67817-50.815163-113.493333-113.493333-113.493333H113.493333C50.815163-128 0-77.18483700000002 0-14.506666999999993V782.506667z m671.857778-261.237125c7.044183 9.704575 10.825621 21.400261 10.808889 33.397125v113.777777c0 31.422745-25.466144 56.888889-56.888889 56.888889H398.222222c-31.422745 0-56.888889-25.466144-56.888889-56.888889v-113.777777c0-12.515556 3.982222-24.010458 10.808889-33.397125-107.185359-47.100654-188.28549-138.875817-221.866666-251.04732H113.777778c-15.092288 0-29.548758-5.990065-40.223791-16.665098A56.833673 56.833673 0 0 1 56.888889 213.33333300000004v-113.777777c0-15.092288 5.990065-29.548758 16.665098-40.223791S98.68549 42.66666699999996 113.777778 42.66666699999996h113.777778c15.092288 0 29.548758 5.990065 40.22379 16.665098S284.444444 84.46326799999997 284.444444 99.55555600000002v113.777777c0 22.989804-13.820654 43.737516-35.053594 52.572026C285.749542 352.878431 362.767059 416.276078 455.111111 435.2V270.222222c-15.092288 0-29.548758-5.990065-40.223791-16.665098S398.222222 228.42562099999998 398.222222 213.33333300000004v-113.777777c0-15.092288 5.990065-29.548758 16.665098-40.223791S440.018824 42.66666699999996 455.111111 42.66666699999996h113.777778c15.092288 0 29.56549 5.990065 40.223791 16.665098A56.862118 56.862118 0 0 1 625.777778 99.55555600000002v113.777777c0 15.092288-5.990065 29.56549-16.665098 40.223791S583.981176 270.222222 568.888889 270.222222v164.977778c92.360784-18.923922 169.361569-82.321569 205.720261-169.294641A56.895582 56.895582 0 0 1 739.572288 213.33333300000004v-113.777777c0-15.092288 5.990065-29.548758 16.665098-40.223791s25.131503-16.665098 40.22379-16.665098h113.777778c15.092288 0 29.56549 5.990065 40.223791 16.665098a56.862118 56.862118 0 0 1 16.665098 40.223791v113.777777c0 15.092288-5.990065 29.56549-16.665098 40.223791a56.862118 56.862118 0 0 1-40.223791 16.665098h-16.497778c-33.597908 112.171503-114.698039 203.946667-221.883398 251.04732z"  horiz-adv-x="1024" />

    
    <glyph glyph-name="xiangqing" unicode="&#59007;" d="M921.014379 794.687582H656.547974C634.478431 855.508497 576.702745 896 512 896s-122.478431-40.491503-144.547974-101.312418H104.658824c-56.621176 0-102.517124-45.895948-102.517125-102.517124v-717.636602c0-56.621176 45.895948-102.517124 102.517125-102.517124h816.355555c56.621176 0 102.517124 45.895948 102.517124 102.517124v717.636602c0 56.621176-45.895948 102.517124-102.517124 102.517124z m-409.014379 0c28.310588 0 51.266928-22.939608 51.266928-51.266928 0-28.310588-22.95634-51.250196-51.266928-51.250196s-51.266928 22.939608-51.266928 51.250196c0 28.310588 22.95634 51.266928 51.266928 51.266928z m68.183007-768.90353H238.782745c-18.974118 0-34.35085 23.056732-34.35085 51.250196s15.376732 51.266928 34.35085 51.266928h341.902222c18.957386 0 34.35085-23.056732 34.35085-51.266928 0-28.193464-15.895425-51.250196-34.85281-51.250196z m188.118169 205.034249H255.698824c-28.310588 0-51.266928 22.939608-51.266929 51.266928 0 28.310588 22.95634 51.250196 51.266929 51.250196h512.602352c28.310588 0 51.250196-22.939608 51.250197-51.250196 0-28.310588-22.939608-51.266928-51.250197-51.266928z m0 0"  horiz-adv-x="1024" />

    
    <glyph glyph-name="wenjian1" unicode="&#59008;" d="M949.656419 894.21201H73.056941C32.71856 894.21201 0.000022 861.510183 0.000022 821.138381v-876.064752c0-40.338381 32.701828-73.056919 73.056919-73.056919h620.916971L1022.679917 165.631332V821.121671c0.01671 40.388512-32.685117 73.090339-73.023498 73.090339zM913.127959 821.121671H109.5854c-20.185901 0-36.52846-16.342559-36.528459-36.495039v-803.057964c0-20.185901 16.342559-36.52846 36.528459-36.528459h547.860053l292.177545 257.086162V784.626632c0.03342 20.169191-16.342559 36.495039-36.495039 36.495039zM767.047541 165.631332c-40.338381 0-73.056919-31.030809-73.056919-71.385901v-222.245431l328.706006 293.614621H767.047541v0.016711zM767.047541 421.280418H255.682528c-20.185901 0-36.52846-16.342559-36.528459-36.495039 0-20.185901 16.342559-36.52846 36.528459-36.52846h511.331593c20.15248 0 36.52846 16.342559 36.52846 36.52846 0 20.15248-16.359269 36.495039-36.49504 36.495039zM255.682528 494.354047h292.194256c20.15248 0 36.52846 16.342559 36.52846 36.52846 0 20.15248-16.375979 36.52846-36.52846 36.528459H255.682528c-20.185901 0-36.52846-16.375979-36.528459-36.528459 0.01671-20.185901 16.342559-36.52846 36.528459-36.52846z m0 146.080418h511.331593c20.15248 0 36.52846 16.342559 36.52846 36.495039 0 20.185901-16.375979 36.56188-36.52846 36.56188H255.682528c-20.185901 0-36.52846-16.375979-36.528459-36.56188 0.01671-20.15248 16.342559-36.495039 36.528459-36.495039z"  horiz-adv-x="1024" />

    
    <glyph glyph-name="xiayi" unicode="&#59009;" d="M511.316741-126.62981c282.392872 0 511.314905 228.922033 511.314905 511.314905s-228.922033 511.314905-511.314905 511.314905-511.314905-228.922033-511.314905-511.314905 228.922033-511.314905 511.314905-511.314905z m214.451486 272.601025H296.848545c-23.443621 0-42.442479 19.165954-42.442479 42.826801 0 23.660847 18.998858 42.826801 42.442479 42.8268H725.901904c22.775236 0 42.292092-17.144088 42.292093-43.010606 0.01671-27.570902-18.781632-42.642995-42.42577-42.642995zM229.525415 664.905715c16.007833 16.14151 41.974609 16.14151 57.982442 0l222.739467-224.744624 222.739467 224.744624c16.007833 16.14151 41.974609 16.14151 57.982442 0 16.007833-16.158219 16.007833-42.342221 0-58.500441L539.221835 352.385366a40.708019 40.708019 0 0 0-28.991221-12.114487c-10.493652 0-20.987305 4.043732-28.974511 12.114487L229.525415 606.405274c-16.024542 16.158219-16.024542 42.342221 0 58.500441z m0 0"  horiz-adv-x="1024" />

    
    <glyph glyph-name="xiazaibaobiao" unicode="&#59010;" d="M512.53375 511.866562H820.240813L439.810268 892.563982v-307.8405c0-40.031274 32.692207-72.856919 72.723482-72.85692z m0 0M609.542872 144.045869c28.955955 28.955955 70.721918 37.896273 107.550691 26.554079v164.795413c0 57.645035 46.035966 86.667709 103.14725 88.936148V443.479802l-317.848319-3.33594c-75.258796 0-136.239771 60.980975-136.239771 136.239771V894.231952H71.922856C35.094084 894.231952 4.937191 864.075059 4.937191 827.246286v-821.308314c0-36.828772 30.156893-66.985666 66.985665-66.985666h590.728173l-53.108157 53.108158c-41.765963 41.765963-41.765963 110.219442 0 151.985405zM1001.582486 101.012249c-21.750326 21.750326-57.511598 21.750326-79.261923 0l-36.161585-36.161584V323.586135c0 30.824081-25.219703 56.043784-56.043784 56.043784-30.824081 0-56.043784-25.219703-56.043784-56.043784V64.850665l-36.161585 36.161584c-21.750326 21.750326-57.511598 21.750326-79.261923 0-21.750326-21.750326-21.750326-57.511598 0-79.261923l131.83633-131.836331c21.750326-21.750326 57.511598-21.750326 79.261924 0l131.83633 131.836331c21.883763 21.883763 21.883763 57.511598 0 79.261923z m0 0"  horiz-adv-x="1024" />

    
    <glyph glyph-name="zhihang" unicode="&#59011;" d="M418.033256-128l154.247297 171.307831-159.265101 34.087615 5.017804-205.395446zM1.338081 336.414492l352.651269-106.812323 434.307667 403.899775-336.57757-432.36745 435.578844-116.479958L1022.962987 893.006044 1.338081 336.414492z"  horiz-adv-x="1024" />

    
    <glyph glyph-name="xinzeng" unicode="&#59012;" d="M968.985098 98.417778h-59.833725v59.833725c0 30.117647-24.629542 54.881046-54.881046 54.881046-30.117647 0-54.881046-24.629542-54.881046-54.881046v-59.833725H739.555556c-30.117647 0-54.881046-24.763399-54.881046-54.881046 0-30.117647 24.629542-54.881046 54.881046-54.881046h59.833725v-59.833725c0-30.117647 24.763399-54.881046 54.881046-54.881046s54.881046 24.629542 54.881046 54.881046v59.833725h59.833725c30.117647 0 54.881046 24.629542 54.881046 54.881046s-24.629542 54.881046-54.881046 54.881046zM545.999477 502.128105H854.671895L473.047843 884.019869v-308.806274c0-40.156863 32.794771-73.08549 72.951634-73.08549z m0 0M620.825098 40.859608c0 62.912418 51.534641 114.447059 114.447059 114.447059h1.07085v0.936993c0 62.912418 51.534641 114.447059 114.447058 114.447059 1.338562 0 2.677124 0 4.015687-0.133856v167.320261H535.826405c-75.494902 0-136.66719 61.172288-136.667189 136.66719V893.389804H68.86902C31.924706 893.389804 1.673203 863.138301 1.673203 826.193987v-827.231373c0-36.944314 30.251503-67.195817 67.195817-67.195817h631.734379c-46.046536 14.724183-79.778301 58.093595-79.778301 109.092811z m0 0"  horiz-adv-x="1024" />

    
    <glyph glyph-name="zhijianjieguo" unicode="&#59013;" d="M963.731242 570.344575c-79.577516 110.381176-209.267451 182.211765-355.722876 182.211765-242.028758 0-438.228497-196.166275-438.228497-438.178301 0-185.323922 115.049412-377.206797 277.567582-441.290457H104.70902a104.156863 104.156863 0 0 0-73.620915 30.485751A104.128418 104.128418 0 0 0 0.585621-22.78902V772.283399c0 27.607843 10.976209 72.499869 30.502484 92.026143S77.101176 894.812026 104.70902 894.812026h754.915555c27.624575 0 54.094641-10.976209 73.637647-30.502484 19.526275-19.526275 30.485752-64.418301 30.485752-92.026143v-201.938824h-0.016732z m-70.324706-457.553987l112.64-146.104052c23.106928-23.173856 23.106928-53.960784 0-77.134641-23.157124-23.173856-60.653595-23.173856-83.810719 0l-112.673464 139.411242a346.560418 346.560418 0 0 0-200.600261-63.598431c-192.234248 0-348.042876 155.825359-348.042876 348.042876s155.791895 348.042876 348.042876 348.042876 348.042876-155.825359 348.042875-348.042876c-0.016732-74.691765-23.541961-143.912157-63.598431-200.616994zM674.26719 557.511111c53.626144-6.508758 98.216993-40.87634 134.69281-105.696209 7.194771-12.214379 22.839216-16.43085 35.187451-9.487059 12.364967 6.943791 16.882614 22.504575 10.173072 35.003399-44.038693 78.356078-102.299608 123.181176-173.778824 131.88183-14.272418 1.740131-27.256471-8.432941-28.979869-22.70536-1.740131-14.272418 8.432941-27.256471 22.70536-28.996601z"  horiz-adv-x="1024" />

    
    <glyph glyph-name="bianji" unicode="&#59014;" d="M1004.436509 734.339409l-105.546448-105.263882-140.784002 140.368465 105.579691 105.263882c19.430519 19.380655 50.94486 19.380655 70.375379 0l70.37538-70.192543c19.430519-19.364033 19.430519-50.795267 0-70.175922zM265.21246 278.229162l140.76738-140.385086-187.606733-46.723002 46.839353 187.108088z m598.47329 315.775026L441.450095 172.948658l-140.734137 140.335222L722.91837 734.339409l140.76738-140.335221zM111.280861 711.567971v-730.048988h730.065609V529.047413l109.518984 73.001575v-693.548201c0-27.59167-8.909117-36.500787-36.517409-36.500787H51.742692c-27.59167 0-49.980814 22.355901-49.980814 49.947571V784.569546c0 27.59167 8.875874 36.500787 36.500787 36.500787h693.564822l-109.502362-109.502362H111.280861z m0 0"  horiz-adv-x="1025" />

    
    <glyph glyph-name="baocun" unicode="&#59015;" d="M0-126.393725V895.196863h769.020654L1023.196863 639.799216v-766.192941H0z m255.799216 851.32549v-255.397647h170.53281V724.931765H255.799216z m0-425.662745v-340.530196h511.598431V299.26902H255.799216z m0 0"  horiz-adv-x="1024" />

    


  </font>
</defs>
</svg>
